Coordinates
version=1
nRows=18
nColumns=63
inDegrees=yes

Units are S.I. units (second, meters, Newtons, ...)
If the header above contains a line with 'inDegrees', this indicates whether rotational values are in degrees (yes) or radians (no).

endheader
time	pelvis_tilt	pelvis_list	pelvis_rotation	pelvis_tx	pelvis_ty	pelvis_tz	hip_flexion_r	hip_adduction_r	hip_rotation_r	knee_angle_r	knee_angle_r_beta	ankle_angle_r	subtalar_angle_r	mtp_angle_r	hip_flexion_l	hip_adduction_l	hip_rotation_l	knee_angle_l	knee_angle_l_beta	ankle_angle_l	subtalar_angle_l	mtp_angle_l	L5_S1_Flex_Ext	L5_S1_Lat_Bending	L5_S1_axial_rotation	L4_L5_Flex_Ext	L4_L5_Lat_Bending	L4_L5_axial_rotation	L3_L4_Flex_Ext	L3_L4_Lat_Bending	L3_L4_axial_rotation	L2_L3_Flex_Ext	L2_L3_Lat_Bending	L2_L3_axial_rotation	L1_L2_Flex_Ext	L1_L2_Lat_Bending	L1_L2_axial_rotation	L1_T12_Flex_Ext	L1_T12_Lat_Bending	L1_T12_axial_rotation	Abs_r3	Abs_r2	Abs_r1	Abs_t1	Abs_t2	neck_flexion	neck_bending	neck_rotation	arm_flex_r	arm_add_r	arm_rot_r	elbow_flex_r	pro_sup_r	wrist_flex_r	wrist_dev_r	arm_flex_l	arm_add_l	arm_rot_l	elbow_flex_l	pro_sup_l	wrist_flex_l	wrist_dev_l
2.067797	-3.174352	-3.754232	97.954390	0.247940	0.956565	0.263841	1.175561	-3.837599	-22.074791	5.576536	0.097329	19.827086	16.824095	0.000000	6.133104	5.417216	5.626620	9.018398	0.157401	9.901733	-14.455209	0.000000	0.029333	-0.503307	-0.185047	0.054475	-0.669399	-0.196613	0.048192	-1.223741	-0.196613	0.033525	-1.223741	-0.161917	0.027239	-1.026344	-0.150351	0.016761	-0.779623	-0.138786	0.209526	-5.693513	-1.029179	0.000000	0.000000	11.650461	1.550973	-6.406896	4.720523	-8.605832	49.882318	54.064507	3.666961	-2.173023	11.834757	15.788089	-10.150859	64.355343	55.863192	68.350598	-6.650201	10.122007
2.084746	-3.121522	-3.638858	97.980820	0.247878	0.956857	0.263319	0.973003	-3.748440	-22.143860	5.507155	0.096118	19.880238	16.832355	0.000000	5.944921	5.351293	5.804667	8.903442	0.155394	9.943808	-14.575804	0.000000	0.024616	-0.492855	-0.203767	0.045715	-0.655497	-0.216502	0.040442	-1.198328	-0.216502	0.028134	-1.198328	-0.178296	0.022858	-1.005030	-0.165561	0.014066	-0.763433	-0.152825	0.175830	-5.575275	-1.133291	0.000000	0.000000	11.404404	1.502720	-6.186899	4.631435	-8.497681	49.941704	53.794640	3.772763	-1.795953	11.462563	15.640756	-10.116218	64.148190	55.812304	68.395606	-6.454133	10.296264
2.101695	-3.077060	-3.545124	97.988685	0.247831	0.957087	0.262834	0.809970	-3.676263	-22.208460	5.455491	0.095216	19.907930	16.848351	0.000000	5.786882	5.300393	5.962886	8.809550	0.153756	9.985146	-14.734192	0.000000	0.022928	-0.483177	-0.212942	0.042579	-0.642626	-0.226251	0.037668	-1.174798	-0.226251	0.026204	-1.174798	-0.186324	0.021290	-0.985295	-0.173015	0.013101	-0.748442	-0.159706	0.163769	-5.465800	-1.184318	0.000000	0.000000	11.162474	1.419028	-6.017426	4.520233	-8.404465	49.970771	53.557247	3.835852	-1.388734	11.051081	15.480108	-10.072816	63.903675	55.770458	68.562691	-6.191456	10.447937
2.118644	-3.037122	-3.459630	97.978906	0.247804	0.957275	0.262392	0.662103	-3.608656	-22.237507	5.394718	0.094156	19.880660	16.845212	0.000000	5.643246	5.255751	6.062347	8.735005	0.152455	10.038053	-14.874145	0.000000	0.022411	-0.473768	-0.212754	0.041620	-0.630112	-0.226051	0.036819	-1.151920	-0.226051	0.025614	-1.151920	-0.186160	0.020811	-0.966108	-0.172863	0.012806	-0.733867	-0.159566	0.160081	-5.359362	-1.183275	0.000000	0.000000	10.915732	1.307367	-5.894646	4.382835	-8.318673	49.912092	53.341724	4.197348	-0.956143	10.595930	15.323842	-10.026256	63.662135	55.736538	68.724547	-5.871142	10.561141
2.135593	-3.001553	-3.388570	97.967096	0.247783	0.957404	0.262018	0.541448	-3.549738	-22.269148	5.340041	0.093201	19.809240	16.839517	0.000000	5.532698	5.213578	6.041838	8.702569	0.151888	10.141890	-14.882182	0.000000	0.023875	-0.465225	-0.209370	0.044339	-0.618750	-0.222455	0.039225	-1.131149	-0.222455	0.027287	-1.131149	-0.183198	0.022170	-0.948687	-0.170113	0.013642	-0.720634	-0.157027	0.170538	-5.262721	-1.164451	0.000000	0.000000	10.669291	1.181524	-5.823354	4.249509	-8.251137	49.843300	53.168184	4.584350	-0.512158	10.096591	15.146829	-9.987300	63.359412	55.732764	68.996746	-5.485947	10.653355
2.152542	-2.965511	-3.322898	97.950768	0.247768	0.957488	0.261715	0.435273	-3.491064	-22.280192	5.282777	0.092202	19.687900	16.813992	0.000000	5.443568	5.165465	5.874041	8.709833	0.152015	10.306820	-14.726088	0.000000	0.025927	-0.456878	-0.203012	0.048148	-0.607648	-0.215700	0.042595	-1.110854	-0.215700	0.029631	-1.110854	-0.177635	0.024075	-0.931666	-0.164947	0.014814	-0.707705	-0.152259	0.185190	-5.168299	-1.129090	0.000000	0.000000	10.424778	1.045858	-5.795896	4.122356	-8.203468	49.743774	53.039817	5.096763	-0.082187	9.584454	14.957102	-9.955897	63.007604	55.759887	69.348551	-5.048972	10.728271
2.169492	-2.937576	-3.270616	97.936033	0.247770	0.957528	0.261462	0.353004	-3.444329	-22.303571	5.235357	0.091374	19.543231	16.805772	0.000000	5.376249	5.109734	5.457702	8.745087	0.152631	10.571188	-14.218531	0.000000	0.030187	-0.450336	-0.194427	0.056060	-0.598948	-0.206578	0.049594	-1.094948	-0.206578	0.034501	-1.094948	-0.170123	0.028032	-0.918326	-0.157972	0.017249	-0.697571	-0.145820	0.215622	-5.094296	-1.081343	0.000000	0.000000	10.172236	0.905393	-5.824621	3.989462	-8.157741	49.580734	52.935006	5.706160	0.383356	9.123693	14.779339	-9.946409	62.681197	55.820546	69.753100	-4.621432	10.754536
2.186441	-2.902589	-3.220250	97.960796	0.247714	0.957544	0.261278	0.272154	-3.390874	-22.355637	5.185312	0.090501	19.375969	16.791575	0.000000	5.328413	5.050309	5.009182	8.821085	0.153957	10.858919	-13.645298	0.000000	0.034459	-0.443362	-0.194790	0.063993	-0.589672	-0.206965	0.056612	-1.077991	-0.206965	0.039383	-1.077991	-0.170441	0.031998	-0.904105	-0.158267	0.019690	-0.686768	-0.146093	0.246136	-5.015404	-1.083364	0.000000	0.000000	9.926922	0.772863	-5.864910	3.883467	-8.134259	49.430884	52.880928	6.247418	0.776162	8.702177	14.604201	-9.950471	62.342855	55.905541	70.203542	-4.202480	10.748387
2.203390	-2.862647	-3.171174	98.017620	0.247605	0.957552	0.261136	0.190822	-3.332253	-22.431136	5.131192	0.089556	19.197639	16.781011	0.000000	5.288818	4.989842	4.558991	8.917768	0.155644	11.132620	-13.059343	0.000000	0.038801	-0.435962	-0.201926	0.072057	-0.579829	-0.214547	0.063746	-1.059997	-0.214547	0.044346	-1.059997	-0.176685	0.036031	-0.889013	-0.164065	0.022171	-0.675304	-0.151445	0.277151	-4.931684	-1.123053	0.000000	0.000000	9.684677	0.641118	-5.909220	3.799443	-8.131287	49.282723	52.868126	6.696517	1.101718	8.375460	14.453119	-9.965188	62.048485	56.001071	70.644487	-3.821575	10.694706
2.220339	-2.816007	-3.123531	98.107925	0.247438	0.957572	0.261028	0.107310	-3.264814	-22.511553	5.067560	0.088446	18.999734	16.753290	0.000000	5.260232	4.926276	4.109703	9.036683	0.157720	11.374400	-12.472918	0.000000	0.043067	-0.427774	-0.215840	0.079980	-0.568940	-0.229330	0.070755	-1.040090	-0.229330	0.049222	-1.040090	-0.188860	0.039992	-0.872317	-0.175370	0.024609	-0.662622	-0.161880	0.307625	-4.839066	-1.200435	0.000000	0.000000	9.445076	0.506121	-5.950718	3.736660	-8.150676	49.146637	52.898205	7.005595	1.316881	8.157713	14.334172	-9.980949	61.814210	56.085432	71.057395	-3.476572	10.602489
2.237288	-2.759662	-3.077880	98.251877	0.247182	0.957610	0.260937	0.015131	-3.184414	-22.631930	4.987406	0.087047	18.789810	16.733889	0.000000	5.240805	4.864919	3.795778	9.171378	0.160071	11.512325	-12.048645	0.000000	0.047087	-0.418517	-0.238371	0.087446	-0.556627	-0.253269	0.077360	-1.017581	-0.253269	0.053816	-1.017581	-0.208575	0.043725	-0.853439	-0.193676	0.026906	-0.648282	-0.178778	0.336341	-4.734343	-1.325748	0.000000	0.000000	9.213493	0.366188	-5.993715	3.689730	-8.192694	49.039823	52.964675	7.171775	1.427029	8.020419	14.269899	-9.993860	61.698491	56.143409	71.372176	-3.185136	10.458987
2.254237	-2.701475	-3.032751	98.376031	0.246950	0.957682	0.260819	-0.070141	-3.102934	-22.717867	4.910287	0.085701	18.579364	16.721605	0.000000	5.212925	4.793554	3.411304	9.292794	0.162190	11.586743	-11.589580	0.000000	0.051076	-0.409093	-0.252342	0.094853	-0.544094	-0.268114	0.083913	-0.994669	-0.268114	0.058375	-0.994669	-0.220799	0.047429	-0.834223	-0.205028	0.029185	-0.633685	-0.189257	0.364831	-4.627744	-1.403451	0.000000	0.000000	8.975895	0.219502	-6.060988	3.629868	-8.243744	48.914692	53.046796	7.210459	1.480746	7.987859	14.286920	-9.994763	61.766909	56.152622	71.529461	-2.944165	10.267936
2.271186	-2.633518	-2.990792	98.554408	0.246645	0.957778	0.260674	-0.169432	-3.005939	-22.854813	4.812953	0.084002	18.365352	16.721212	0.000000	5.193138	4.723043	3.202164	9.424362	0.164486	11.536728	-11.339828	0.000000	0.054995	-0.399008	-0.274338	0.102131	-0.530680	-0.291485	0.090351	-0.970147	-0.291485	0.062853	-0.970147	-0.240046	0.051068	-0.813657	-0.222900	0.031424	-0.618063	-0.205754	0.392822	-4.513656	-1.525788	0.000000	0.000000	8.754626	0.077974	-6.135986	3.564679	-8.303628	48.821282	53.153886	7.116231	1.440482	8.004162	14.346818	-9.993964	61.941832	56.135114	71.581893	-2.754903	10.071144
2.288136	-2.564429	-2.948704	98.759445	0.246322	0.957897	0.260474	-0.282530	-2.901800	-23.013166	4.705018	0.082118	18.162149	16.725700	0.000000	5.164968	4.655334	3.129734	9.540601	0.166515	11.379956	-11.259504	0.000000	0.058257	-0.389479	-0.299120	0.108189	-0.518007	-0.317815	0.095710	-0.946980	-0.317815	0.066582	-0.946980	-0.261730	0.054097	-0.794226	-0.243035	0.033288	-0.603303	-0.224340	0.416124	-4.405866	-1.663613	0.000000	0.000000	8.557601	-0.046985	-6.222897	3.481822	-8.355227	48.738456	53.268959	6.934243	1.333818	8.062575	14.437996	-9.999097	62.210002	56.104796	71.527828	-2.649666	9.877736
2.305085	-2.499102	-2.910766	98.997351	0.245984	0.958037	0.260215	-0.401149	-2.798158	-23.206491	4.604374	0.080361	18.002288	16.741356	0.000000	5.132486	4.597446	3.244860	9.637690	0.168209	11.107456	-11.389429	0.000000	0.061594	-0.381479	-0.330196	0.114386	-0.507368	-0.350834	0.101193	-0.927529	-0.350834	0.070396	-0.927529	-0.288922	0.057196	-0.777913	-0.268285	0.035195	-0.590912	-0.247647	0.439959	-4.315372	-1.836453	0.000000	0.000000	8.392758	-0.134181	-6.307064	3.383148	-8.385256	48.684929	53.382130	6.542976	1.163722	8.161729	14.510642	-10.013209	62.468925	56.083847	71.483601	-2.642804	9.733822
2.322034	-2.432540	-2.853023	99.209890	0.245715	0.958218	0.259890	-0.552449	-2.680933	-23.330992	4.487688	0.078325	17.873423	16.728941	0.000000	5.075618	4.530160	3.415184	9.722759	0.169694	10.804946	-11.610448	0.000000	0.061214	-0.373716	-0.356740	0.113681	-0.497042	-0.379036	0.100569	-0.908652	-0.379036	0.069962	-0.908652	-0.312148	0.056844	-0.762081	-0.289851	0.034978	-0.578886	-0.267555	0.437249	-4.227546	-1.984082	0.000000	0.000000	8.281711	-0.177954	-6.381984	3.278858	-8.406526	48.659753	53.486264	6.259563	0.961900	8.290412	14.582084	-10.029499	62.747083	56.057610	71.328705	-2.728727	9.599944
2.338983	-2.384944	-2.796731	99.402685	0.245520	0.958415	0.259474	-0.708330	-2.580350	-23.420934	4.384504	0.076524	17.833858	16.721089	0.000000	4.989830	4.476838	3.678076	9.745113	0.170084	10.442599	-11.931848	0.000000	0.061194	-0.369286	-0.378810	0.113644	-0.491151	-0.402486	0.100536	-0.897882	-0.402486	0.069939	-0.897882	-0.331459	0.056825	-0.753048	-0.307784	0.034966	-0.572024	-0.284108	0.437105	-4.177439	-2.106830	0.000000	0.000000	8.205899	-0.178605	-6.461794	3.137514	-8.385023	48.592451	53.547811	6.115098	0.775242	8.492013	14.652436	-10.068436	63.091005	56.054788	71.083869	-3.003231	9.483302
2.355932	-2.341562	-2.735141	99.598873	0.245347	0.958627	0.259025	-0.873948	-2.479848	-23.485682	4.293426	0.074934	17.874071	16.694999	0.000000	4.898655	4.429753	4.095140	9.754086	0.170241	10.043547	-12.415541	0.000000	0.060122	-0.365854	-0.405602	0.111652	-0.486586	-0.430952	0.098774	-0.889538	-0.430952	0.068713	-0.889538	-0.354902	0.055829	-0.746050	-0.329552	0.034353	-0.566708	-0.304202	0.429442	-4.138615	-2.255838	0.000000	0.000000	8.181831	-0.133655	-6.507183	3.002125	-8.341748	48.558414	53.589997	5.860951	0.529062	8.779584	14.668348	-10.110164	63.331021	56.073669	70.927156	-3.331862	9.457788
